<?xml version="1.0" encoding="UTF-8" standalone="no"?>
<!-- Created with Inkscape (http://www.inkscape.org/) -->

<svg
   xmlns:dc="http://purl.org/dc/elements/1.1/"
   xmlns:cc="http://creativecommons.org/ns#"
   xmlns:rdf="http://www.w3.org/1999/02/22-rdf-syntax-ns#"
   xmlns:svg="http://www.w3.org/2000/svg"
   xmlns="http://www.w3.org/2000/svg"
   xmlns:xlink="http://www.w3.org/1999/xlink"
   xmlns:sodipodi="http://sodipodi.sourceforge.net/DTD/sodipodi-0.dtd"
   xmlns:inkscape="http://www.inkscape.org/namespaces/inkscape"
   width="744.09448819"
   height="1052.3622047"
   id="svg3573"
   version="1.1"
   inkscape:version="0.48.4 r9939"
   sodipodi:docname="fuel_coin.svg">
  <defs
     id="defs3575">
    <linearGradient
       id="linearGradient4395">
      <stop
         id="stop4397"
         offset="0"
         style="stop-color:#e6e6e6;stop-opacity:1;" />
      <stop
         id="stop4399"
         offset="1"
         style="stop-color:#e6e6e6;stop-opacity:0;" />
    </linearGradient>
    <linearGradient
       id="linearGradient4387">
      <stop
         style="stop-color:#4b73e6;stop-opacity:1;"
         offset="0"
         id="stop4389" />
      <stop
         style="stop-color:#ccd0df;stop-opacity:1;"
         offset="1"
         id="stop4391" />
    </linearGradient>
    <radialGradient
       inkscape:collect="always"
       xlink:href="#linearGradient4387"
       id="radialGradient4401"
       cx="-1097.1429"
       cy="-176.20924"
       fx="-1097.1429"
       fy="-176.20924"
       r="112.35662"
       gradientTransform="matrix(1,0,0,0.99937509,0,-0.11011458)"
       gradientUnits="userSpaceOnUse" />
  </defs>
  <sodipodi:namedview
     id="base"
     pagecolor="#ffffff"
     bordercolor="#666666"
     borderopacity="1.0"
     inkscape:pageopacity="0.0"
     inkscape:pageshadow="2"
     inkscape:zoom="0.7"
     inkscape:cx="-614.73108"
     inkscape:cy="790.19336"
     inkscape:document-units="px"
     inkscape:current-layer="layer1"
     showgrid="false"
     inkscape:window-width="1920"
     inkscape:window-height="1020"
     inkscape:window-x="0"
     inkscape:window-y="25"
     inkscape:window-maximized="1" />
  <metadata
     id="metadata3578">
    <rdf:RDF>
      <cc:Work
         rdf:about="">
        <dc:format>image/svg+xml</dc:format>
        <dc:type
           rdf:resource="http://purl.org/dc/dcmitype/StillImage" />
        <dc:title></dc:title>
      </cc:Work>
    </rdf:RDF>
  </metadata>
  <g
     inkscape:label="Layer 1"
     inkscape:groupmode="layer"
     id="layer1">
    <path
       sodipodi:type="star"
       style="fill:url(#radialGradient4401);fill-opacity:1"
       id="path3590"
       sodipodi:sides="10"
       sodipodi:cx="-1097.1429"
       sodipodi:cy="-176.20924"
       sodipodi:r1="113.72183"
       sodipodi:r2="96.572136"
       sodipodi:arg1="1.1015308"
       sodipodi:arg2="1.3980138"
       inkscape:flatsided="false"
       inkscape:rounded="0"
       inkscape:randomized="0"
       d="m -1045.7144,-74.780664 -34.8255,-6.294384 -34.6147,17.152207 -24.4746,-25.562177 -38.0858,-6.469589 -4.7753,-35.066083 -27.0093,-27.62023 16.748,-31.17594 -5.6162,-38.22087 31.8742,-15.37765 17.9221,-34.22244 34.8255,6.29438 34.6147,-17.15221 24.4747,25.56218 38.0857,6.46959 4.7753,35.06609 27.00927,27.62022 -16.74797,31.17594 5.61617,38.22087 -31.87417,15.37765 z"
       inkscape:export-filename="/home/local/projects/wallr/res/fuel_x1.png"
       inkscape:export-xdpi="16.02"
       inkscape:export-ydpi="16.02" />
    <path
       id="path6946"
       style="fill:#000000"
       inkscape:connector-curvature="0"
       d="m -1119.6848,-220.54647 c -5.0746,0 -9.2145,3.4343 -9.2145,7.6219 l 0,80.19999 44.935,0.62568 0.057,-46.86899 8.4751,0 c 1.9473,0 3.5266,1.2894 3.5266,2.9009 l 0,35.32199 c 0,4.7369 5.3825,8.8732 11.49,8.8732 5.7678,0 12.172,-3.7834 12.172,-8.8732 -0.089,-1.1849 -4.6641,-22.23999 -4.6641,-22.23999 0,-0.0488 -0.967,-5.9155 -0.967,-5.9155 l 0,-26.904 c 0,-2.8812 -1.1663,-5.2581 -3.5265,-7.2237 l -15.016,-12.4 c -1.0325,0 -3.9247,2.389 -3.9247,2.389 0,0.86685 7.4512,6.9962 7.4512,6.9962 l -0.2275,10.466 c 0,3.6992 3.6346,6.7118 8.1338,6.7118 l 2.0477,0 -0.7394,19.965 1.0238,6.88239 4.5504,20.192 c 0.1769,3.284 -3.4519,5.2329 -6.3136,5.2329 -2.6406,0 -5.7449,-1.8209 -5.7449,-4.1522 l 0.057,-35.37899 c 0,-4.3097 -4.2495,-7.7925 -9.442,-7.7925 l -9.0439,0 c 0.6342,-0.0366 0.6257,-23.235 0.6257,-28.155 l 0,-0.8532 c 0,-4.1876 -4.0978,-7.6219 -9.1576,-7.6219 l -26.563,0 z m 0,5.5173 26.563,0 c 1.4161,0 2.5027,0.94475 2.5027,2.1046 l 0,18.486 c 0,1.172 -1.0866,2.0477 -2.5027,2.0477 l -26.563,0 c -1.431,0 -2.5027,-0.87564 -2.5027,-2.0477 l 0,-18.486 c 0,-1.1598 1.0717,-2.1046 2.5027,-2.1046 z m 55.401,14.846 c 0,0 2.2561,0.3898 2.7871,0.51192 1.0916,0.23194 1.7907,1.5907 1.8202,2.7871 0.029,1.2088 0,4.8348 0,4.8348 -3.3485,-0.61047 -4.6073,-2.0374 -4.6073,-3.3559 l 0,-4.7779 z"
       inkscape:export-filename="/home/local/projects/wallr/res/fuel_x1.png"
       inkscape:export-xdpi="16.02"
       inkscape:export-ydpi="16.02" />
    <path
       transform="translate(305.71437,-7.2099424e-6)"
       sodipodi:type="star"
       style="fill:#e6e6e6;fill-opacity:1"
       id="path3590-5"
       sodipodi:sides="10"
       sodipodi:cx="-1097.1429"
       sodipodi:cy="-176.20924"
       sodipodi:r1="113.72183"
       sodipodi:r2="96.572136"
       sodipodi:arg1="1.1015308"
       sodipodi:arg2="1.3980138"
       inkscape:flatsided="false"
       inkscape:rounded="0"
       inkscape:randomized="0"
       d="m -1045.7144,-74.780664 -34.8255,-6.294384 -34.6147,17.152207 -24.4746,-25.562177 -38.0858,-6.469589 -4.7753,-35.066083 -27.0093,-27.62023 16.748,-31.17594 -5.6162,-38.22087 31.8742,-15.37765 17.9221,-34.22244 34.8255,6.29438 34.6147,-17.15221 24.4747,25.56218 38.0857,6.46959 4.7753,35.06609 27.00927,27.62022 -16.74797,31.17594 5.61617,38.22087 -31.87417,15.37765 z" />
    <path
       id="path6946-9"
       style="fill:#000000"
       inkscape:connector-curvature="0"
       d="m -804.05106,-244.83226 c -3.45673,0 -6.27677,2.33939 -6.27677,5.19192 l 0,54.631 30.60903,0.4262 0.0388,-31.92643 5.77311,0 c 1.32647,0 2.40227,0.87832 2.40227,1.97605 l 0,24.06079 c 0,3.22671 3.66647,6.04429 7.82681,6.04429 3.92893,0 8.29137,-2.57719 8.29137,-6.04429 -0.0606,-0.80713 -3.17711,-15.14953 -3.17711,-15.14953 0,-0.0333 -0.6587,-4.02955 -0.6587,-4.02955 l 0,-18.3266 c 0,-1.96263 -0.79447,-3.58173 -2.4022,-4.92067 l -10.22867,-8.44669 c -0.70332,0 -2.67344,1.62735 -2.67344,1.62735 0,0.59049 5.07564,4.76571 5.07564,4.76571 l -0.15497,7.12927 c 0,2.51984 2.47583,4.57198 5.54062,4.57198 l 1.39486,0 -0.50367,13.59985 0.6974,4.68818 3.09966,13.75448 c 0.1205,2.23701 -2.35138,3.56457 -4.30073,3.56457 -1.79873,0 -3.91333,-1.24037 -3.91333,-2.82842 l 0.0388,-24.09962 c 0,-2.9357 -2.89469,-5.30813 -6.43174,-5.30813 l -6.16056,0 c 0.432,-0.0249 0.42621,-15.82733 0.42621,-19.17875 l 0,-0.58119 c 0,-2.85253 -2.79135,-5.19192 -6.23801,-5.19192 l -18.09431,0 z m 0,3.7583 18.09431,0 c 0.96462,0 1.7048,0.64355 1.7048,1.43362 l 0,12.59238 c 0,0.79835 -0.74018,1.39486 -1.7048,1.39486 l -18.09431,0 c -0.97477,0 -1.7048,-0.59647 -1.7048,-1.39486 l 0,-12.59238 c 0,-0.79004 0.73003,-1.43362 1.7048,-1.43362 z m 37.73831,10.11286 c 0,0 1.53682,0.26553 1.89853,0.34872 0.74358,0.15799 1.21979,1.08356 1.23989,1.89853 0.0198,0.82341 0,3.29339 0,3.29339 -2.28095,-0.41585 -3.13842,-1.38785 -3.13842,-2.28599 l 0,-3.25463 z" />
    <text
       xml:space="preserve"
       style="font-size:54.38286591px;font-style:normal;font-weight:normal;line-height:125%;letter-spacing:0px;word-spacing:0px;fill:#000000;fill-opacity:1;stroke:none;font-family:Sans"
       x="-827.57117"
       y="-116.96304"
       id="text3613"
       sodipodi:linespacing="125%"><tspan
         sodipodi:role="line"
         id="tspan3615"
         x="-827.57117"
         y="-116.96304">X2</tspan></text>
  </g>
</svg>
