<?xml version="1.0" encoding="UTF-8" standalone="no"?>
<!-- Created with Inkscape (http://www.inkscape.org/) -->

<svg
   xmlns:dc="http://purl.org/dc/elements/1.1/"
   xmlns:cc="http://creativecommons.org/ns#"
   xmlns:rdf="http://www.w3.org/1999/02/22-rdf-syntax-ns#"
   xmlns:svg="http://www.w3.org/2000/svg"
   xmlns="http://www.w3.org/2000/svg"
   xmlns:xlink="http://www.w3.org/1999/xlink"
   xmlns:sodipodi="http://sodipodi.sourceforge.net/DTD/sodipodi-0.dtd"
   xmlns:inkscape="http://www.inkscape.org/namespaces/inkscape"
   id="svg6359"
   sodipodi:docname="fuel-gauge.svg"
   viewBox="0 0 990 765"
   sodipodi:version="0.32"
   version="1.0"
   inkscape:output_extension="org.inkscape.output.svg.inkscape"
   inkscape:version="0.91 r13725">
  <defs
     id="defs63" />
  <sodipodi:namedview
     id="base"
     inkscape:zoom="0.274183"
     borderopacity="1.0"
     inkscape:current-layer="layer1"
     inkscape:cx="-250.80625"
     inkscape:cy="167.62632"
     inkscape:window-maximized="1"
     showgrid="false"
     inkscape:guide-bbox="true"
     units="mm"
     showguides="true"
     bordercolor="#666666"
     inkscape:window-x="-8"
     guidetolerance="10"
     objecttolerance="10"
     inkscape:window-y="-8"
     inkscape:window-width="1920"
     inkscape:pageopacity="0.0"
     inkscape:pageshadow="2"
     pagecolor="#ffffff"
     gridtolerance="10000"
     inkscape:document-units="mm"
     inkscape:window-height="1018">
    <sodipodi:guide
       id="guide4036"
       position="0.5,0.5"
       orientation="0.17364818,0.98480775" />
    <sodipodi:guide
       position="1291.1085,102.12158"
       orientation="1,0"
       id="guide3598" />
    <sodipodi:guide
       position="1480.6574,-538.23322"
       orientation="0,1"
       id="guide3600" />
  </sodipodi:namedview>
  <g
     id="layer1"
     inkscape:label="Layer 1"
     inkscape:groupmode="layer"
     transform="translate(-223.9 518.24)">
    <path
       id="path6946"
       style="fill:#000000"
       inkscape:connector-curvature="0"
       d="m 550.30383,-89.811821 c -5.0746,0 -9.2145,3.4343 -9.2145,7.6219 l 0,80.1999987 44.935,0.625681 0.057,-46.8689997 8.4751,0 c 1.9473,0 3.5266,1.2894 3.5266,2.9009 l 0,35.322 c 0,4.7368997 5.3825,8.8731997 11.49,8.8731997 5.7678,0 12.172,-3.7834 12.172,-8.8731997 -0.089,-1.1849 -4.6641,-22.24 -4.6641,-22.24 0,-0.0488 -0.967,-5.9155 -0.967,-5.9155 l 0,-26.904 c 0,-2.8812 -1.1663,-5.2581 -3.5265,-7.2237 l -15.016,-12.4 c -1.0325,0 -3.9247,2.389 -3.9247,2.389 0,0.86685 7.4512,6.9962 7.4512,6.9962 l -0.2275,10.466 c 0,3.6992 3.6346,6.7118 8.1338,6.7118 l 2.0477,0 -0.7394,19.965 1.0238,6.8824 4.5504,20.192 c 0.1769,3.2839997 -3.4519,5.2328997 -6.3136,5.2328997 -2.6406,0 -5.7449,-1.8209 -5.7449,-4.1521997 l 0.057,-35.379 c 0,-4.3097 -4.2495,-7.7925 -9.442,-7.7925 l -9.0439,0 c 0.6342,-0.0366 0.6257,-23.235 0.6257,-28.155 l 0,-0.8532 c 0,-4.1876 -4.0978,-7.6219 -9.1576,-7.6219 l -26.563,0 z m 0,5.5173 26.563,0 c 1.4161,0 2.5027,0.94475 2.5027,2.1046 l 0,18.486 c 0,1.172 -1.0866,2.0477 -2.5027,2.0477 l -26.563,0 c -1.431,0 -2.5027,-0.87564 -2.5027,-2.0477 l 0,-18.486 c 0,-1.1598 1.0717,-2.1046 2.5027,-2.1046 z m 55.401,14.846 c 0,0 2.2561,0.3898 2.7871,0.51192 1.0916,0.23194 1.7907,1.5907 1.8202,2.7871 0.029,1.2088 0,4.8348 0,4.8348 -3.3485,-0.61047 -4.6073,-2.0374 -4.6073,-3.3559 l 0,-4.7779 z" />
    <path
       id="path3220"
       sodipodi:rx="201.71242"
       sodipodi:ry="201.71242"
       style="fill:none"
       sodipodi:type="arc"
       d="m -219.84647,533.12307 a 201.71242,201.71242 0 0 1 174.874595,100.66073 201.71242,201.71242 0 0 1 0.188672,201.77628 201.71242,201.71242 0 0 1 -174.686047,100.98759 l -0.0778,-201.7124 z"
       transform="matrix(1.8202 0 0 1.8202 1038.7 -1473.3)"
       sodipodi:cy="734.83527"
       sodipodi:cx="-219.54707"
       sodipodi:end="7.8535958"
       sodipodi:start="4.7109047" />
    <ellipse
       id="path3990"
       style="fill:#ffffff;stroke:#000000;stroke-width:0.0862725"
       transform="matrix(-0.49466291,-0.86908493,0.86908493,-0.49466291,0,0)"
       cx="-414.2652"
       cy="566.9704"
       r="13.921787" />
    <rect
       id="rect3996"
       style="fill:#000000"
       rx="4.6767998"
       ry="14.616"
       height="18.648001"
       width="77.258003"
       y="557.64349"
       x="-133.4525"
       transform="matrix(-0.49466291,-0.86908493,0.86908493,-0.49466291,0,0)" />
    <rect
       id="rect4000"
       style="fill:#ff0000"
       transform="matrix(-0.98400504,-0.17814063,0.17814063,-0.98400504,0,0)"
       inkscape:transform-center-x="314.32237"
       inkscape:transform-center-y="-56.907936"
       rx="3.6308"
       ry="7.7842002"
       height="9.9320002"
       width="59.979"
       y="41.015427"
       x="-411.22882" />
    <rect
       id="rect4016"
       style="fill:#000000"
       transform="matrix(-0.99996062,-0.00887446,0.00887446,-0.99996062,0,0)"
       inkscape:transform-center-x="319.41974"
       inkscape:transform-center-y="-2.8358544"
       rx="4.6767998"
       ry="14.616"
       height="18.648001"
       width="77.258003"
       y="-82.69754"
       x="-417.53693" />
    <rect
       id="rect4024"
       ry="14.616"
       style="fill:#000000"
       inkscape:transform-center-x="275.72533"
       inkscape:transform-center-y="-161.28421"
       rx="4.6767998"
       transform="matrix(-0.86317114,-0.50491147,0.50491147,-0.86317114,0,0)"
       height="18.648001"
       width="77.258003"
       y="274.25601"
       x="-361.57254" />
    <rect
       id="rect4026"
       style="fill:#000000"
       transform="matrix(0.00777493,-0.99996977,0.99996977,0.00777493,0,0)"
       inkscape:transform-center-x="-2.4860689"
       inkscape:transform-center-y="-319.42269"
       rx="4.6767998"
       ry="14.616"
       height="18.648001"
       width="77.258003"
       y="688.93286"
       x="206.66284" />
    <rect
       id="rect4044"
       ry="7.7841625"
       style="fill:#ff0000"
       inkscape:transform-center-x="299.30671"
       inkscape:transform-center-y="-111.591"
       rx="3.6307824"
       transform="matrix(-0.93699581,-0.34934059,0.34934059,-0.93699581,0,0)"
       height="9.9319525"
       width="59.97871"
       y="164.19986"
       x="-392.06714" />
    <rect
       id="rect4046"
       style="fill:#ff0000"
       transform="matrix(-0.76390331,-0.64533071,0.64533071,-0.76390331,0,0)"
       inkscape:transform-center-x="244.01548"
       inkscape:transform-center-y="-206.13958"
       rx="3.6308"
       ry="7.7842002"
       height="9.9320002"
       width="59.979"
       y="384.47757"
       x="-294.85205" />
    <rect
       id="rect4048"
       ry="7.7842002"
       style="fill:#ff0000"
       inkscape:transform-center-x="203.75086"
       inkscape:transform-center-y="-246.01358"
       rx="3.6308"
       transform="matrix(-0.63785321,-0.77015796,0.77015796,-0.63785321,0,0)"
       height="9.9320002"
       width="59.979"
       y="481.59509"
       x="-216.84572" />
    <rect
       id="rect4050"
       style="fill:#ff0000"
       transform="matrix(-0.16724239,-0.98591581,0.98591581,-0.16724239,0,0)"
       inkscape:transform-center-x="53.426183"
       inkscape:transform-center-y="-314.93291"
       rx="3.6308"
       ry="7.7842002"
       height="9.9320002"
       width="59.979"
       y="669.57086"
       x="94.322075" />
    <rect
       id="rect4052"
       style="fill:#ff0000"
       transform="matrix(-0.33465442,-0.94234093,0.94234093,-0.33465442,0,0)"
       inkscape:transform-center-x="106.90255"
       inkscape:transform-center-y="-301.01321"
       rx="3.6308"
       ry="7.7842002"
       height="9.9320002"
       width="59.979"
       y="625.85632"
       x="-19.007219" />
    <path
       id="path4275"
       style="fill:#ff6600"
       d="m 712.35089,81.670397 c 0.0979,8.123068 -6.053,11.852225 -9.21073,13.100162 -2.19865,0.812459 -4.78749,0.727824 -4.78749,0.727824 L 354.47886,79.91872 698.48691,67.569785 c 0,0 2.38031,0.144996 4.75794,0.97301 3.23333,1.126029 9.31962,4.985932 9.10624,13.12867 z"
       sodipodi:nodetypes="cccccsc"
       inkscape:transform-center-y="-0.25747457"
       inkscape:connector-curvature="0"
       inkscape:transform-center-x="167.18753" />
    <ellipse
       id="path4282"
       style="fill:#ff6600;stroke:#000000;stroke-width:0.00850425"
       transform="matrix(-0.49466291,-0.86908493,0.86908493,-0.49466291,0,0)"
       cx="-414.25616"
       cy="566.9729"
       r="1.3723303" />
    <text
       xml:space="preserve"
       style="font-style:normal;font-weight:normal;font-size:80.32129669px;line-height:125%;font-family:Sans;letter-spacing:0px;word-spacing:0px;fill:#000000;fill-opacity:1;stroke:none;stroke-width:1px;stroke-linecap:butt;stroke-linejoin:miter;stroke-opacity:1"
       x="681.31335"
       y="-289.37827"
       id="text3393"
       sodipodi:linespacing="125%"><tspan
         sodipodi:role="line"
         id="tspan3395"
         x="681.31335"
         y="-289.37827">F</tspan></text>
    <text
       xml:space="preserve"
       style="font-style:normal;font-weight:normal;font-size:80.32129669px;line-height:125%;font-family:Sans;letter-spacing:0px;word-spacing:0px;fill:#000000;fill-opacity:1;stroke:none;stroke-width:1px;stroke-linecap:butt;stroke-linejoin:miter;stroke-opacity:1"
       x="284.54813"
       y="106.44251"
       id="text3393-6"
       sodipodi:linespacing="125%"><tspan
         sodipodi:role="line"
         id="tspan3395-5"
         x="284.54813"
         y="106.44251">E</tspan></text>
    <rect
       id="rect4026-6"
       style="fill:#000000"
       transform="matrix(0.00777493,-0.99996977,0.99996977,0.00777493,0,0)"
       inkscape:transform-center-x="-2.4860689"
       inkscape:transform-center-y="-319.42269"
       rx="4.6767998"
       ry="14.616"
       height="18.648001"
       width="77.258003"
       y="1509.4746"
       x="-51.101673"
       inkscape:tile-cx="1292.2697"
       inkscape:tile-cy="861.94354"
       inkscape:tile-w="19.175535"
       inkscape:tile-h="77.256826"
       inkscape:tile-x0="1285.168"
       inkscape:tile-y0="503.89243" />
    <use
       x="0"
       y="0"
       inkscape:tiled-clone-of="#rect4026-6"
       xlink:href="#rect4026-6"
       id="use3450"
       inkscape:transform-center-x="-2.4860616"
       inkscape:transform-center-y="-319.42269"
       width="100%"
       height="100%"
       inkscape:tile-cx="1292.2697"
       inkscape:tile-cy="861.94354"
       inkscape:tile-w="19.175535"
       inkscape:tile-h="77.256826"
       inkscape:tile-x0="1285.168"
       inkscape:tile-y0="503.89243" />
    <use
       x="0"
       y="0"
       inkscape:tiled-clone-of="#use3450"
       xlink:href="#use3450"
       id="use3586"
       inkscape:transform-center-x="-2.4860616"
       inkscape:transform-center-y="-319.42269"
       width="100%"
       height="100%" />
    <use
       x="0"
       y="0"
       inkscape:tiled-clone-of="#use3450"
       xlink:href="#use3450"
       transform="matrix(0.92387953,0.38268343,-0.38268343,0.92387953,447.39522,-506.17547)"
       id="use3588"
       inkscape:transform-center-x="-305.81308"
       inkscape:transform-center-y="-169.02522"
       width="100%"
       height="100%" />
    <use
       x="0"
       y="0"
       inkscape:tiled-clone-of="#use3450"
       xlink:href="#use3450"
       transform="matrix(0.70710678,0.70710678,-0.70710678,0.70710678,1026.3342,-815.82888)"
       id="use3590"
       inkscape:transform-center-x="-528.49607"
       inkscape:transform-center-y="86.002144"
       width="100%"
       height="100%" />
    <use
       x="0"
       y="0"
       inkscape:tiled-clone-of="#use3450"
       xlink:href="#use3450"
       transform="matrix(0.38268343,0.92387953,-0.92387953,0.38268343,1651.5981,-893.57994)"
       id="use3592"
       inkscape:transform-center-x="-636.63364"
       inkscape:transform-center-y="406.83381"
       width="100%"
       height="100%" />
    <use
       x="0"
       y="0"
       inkscape:tiled-clone-of="#use3450"
       xlink:href="#use3450"
       transform="matrix(0,1,-1,0,2292.9177,-739.35343)"
       id="use3594"
       inkscape:transform-center-x="-613.76265"
       inkscape:transform-center-y="744.62606"
       width="100%"
       height="100%" />
    <ellipse
       style="opacity:0.59292034;fill:none;stroke:#000000"
       id="path3608"
       cx="1515.0085"
       cy="784.99329"
       r="756.79382" />
  </g>
  <metadata
     id="metadata61">
    <rdf:RDF>
      <cc:Work>
        <dc:format>image/svg+xml</dc:format>
        <dc:type
           rdf:resource="http://purl.org/dc/dcmitype/StillImage" />
        <cc:license
           rdf:resource="http://creativecommons.org/licenses/publicdomain/" />
        <dc:publisher>
          <cc:Agent
             rdf:about="http://openclipart.org/">
            <dc:title>Openclipart</dc:title>
          </cc:Agent>
        </dc:publisher>
        <dc:title></dc:title>
        <dc:date>2012-10-29T23:53:16</dc:date>
        <dc:description>Just a fuel Gauge</dc:description>
        <dc:source>https://openclipart.org/detail/172934/fuel-gauge-by-etheraddict-172934</dc:source>
        <dc:creator>
          <cc:Agent>
            <dc:title>etheraddict</dc:title>
          </cc:Agent>
        </dc:creator>
        <dc:subject>
          <rdf:Bag>
            <rdf:li>Fuel</rdf:li>
            <rdf:li>fuel gauge</rdf:li>
          </rdf:Bag>
        </dc:subject>
      </cc:Work>
      <cc:License
         rdf:about="http://creativecommons.org/licenses/publicdomain/">
        <cc:permits
           rdf:resource="http://creativecommons.org/ns#Reproduction" />
        <cc:permits
           rdf:resource="http://creativecommons.org/ns#Distribution" />
        <cc:permits
           rdf:resource="http://creativecommons.org/ns#DerivativeWorks" />
      </cc:License>
    </rdf:RDF>
  </metadata>
</svg>
