<?xml version="1.0" encoding="UTF-8" standalone="no"?>
<!-- Created with Inkscape (http://www.inkscape.org/) -->

<svg
   xmlns:dc="http://purl.org/dc/elements/1.1/"
   xmlns:cc="http://creativecommons.org/ns#"
   xmlns:rdf="http://www.w3.org/1999/02/22-rdf-syntax-ns#"
   xmlns:svg="http://www.w3.org/2000/svg"
   xmlns="http://www.w3.org/2000/svg"
   xmlns:sodipodi="http://sodipodi.sourceforge.net/DTD/sodipodi-0.dtd"
   xmlns:inkscape="http://www.inkscape.org/namespaces/inkscape"
   width="744.09448819"
   height="1052.3622047"
   id="svg3189"
   version="1.1"
   inkscape:version="0.48.4 r9939"
   sodipodi:docname="wallr_logo.svg">
  <defs
     id="defs3191" />
  <sodipodi:namedview
     id="base"
     pagecolor="#ffffff"
     bordercolor="#666666"
     borderopacity="1.0"
     inkscape:pageopacity="0.0"
     inkscape:pageshadow="2"
     inkscape:zoom="2.8"
     inkscape:cx="583.30975"
     inkscape:cy="550.76948"
     inkscape:document-units="px"
     inkscape:current-layer="layer1"
     showgrid="false"
     inkscape:window-width="1346"
     inkscape:window-height="867"
     inkscape:window-x="2"
     inkscape:window-y="95"
     inkscape:window-maximized="0" />
  <metadata
     id="metadata3194">
    <rdf:RDF>
      <cc:Work
         rdf:about="">
        <dc:format>image/svg+xml</dc:format>
        <dc:type
           rdf:resource="http://purl.org/dc/dcmitype/StillImage" />
        <dc:title></dc:title>
      </cc:Work>
    </rdf:RDF>
  </metadata>
  <g
     inkscape:label="Layer 1"
     inkscape:groupmode="layer"
     id="layer1">
    <path
       inkscape:connector-curvature="0"
       id="path3410"
       style="font-size:168.55784607px;font-style:normal;font-variant:normal;font-weight:normal;font-stretch:normal;line-height:125%;letter-spacing:0px;word-spacing:0px;fill:#000000;fill-opacity:1;stroke:none;font-family:Serif;-inkscape-font-specification:Serif"
       d="m 237.60306,272.66831 22.38659,65.15708 19.75287,-56.75731 -12.67476,0 0,-8.39977 31.6869,0 0,8.39977 -9.71183,0 -26.00795,75.04839 -12.59246,0 -21.56355,-62.40949 -21.64586,62.40949 -12.09863,0 -25.92564,-75.04839 -9.79414,0 0,-8.39977 39.58805,0 0,8.39977 -14.15622,0 19.58826,56.75731 22.5512,-65.15708 10.61717,0" />
    <path
       inkscape:connector-curvature="0"
       id="path3412"
       style="font-size:168.55784607px;font-style:normal;font-variant:normal;font-weight:normal;font-stretch:normal;line-height:125%;letter-spacing:0px;word-spacing:0px;fill:#000000;fill-opacity:1;stroke:none;font-family:Serif;-inkscape-font-specification:Serif"
       d="m 349.78926,328.62705 0,-18.51832 -19.50596,0 c -7.5171,5e-5 -13.11374,1.61869 -16.78994,4.85592 -3.67626,3.23731 -5.51437,8.20296 -5.51434,14.89696 -3e-5,6.09049 1.86552,10.91896 5.59664,14.48544 3.73107,3.5665 8.77902,5.34974 15.14387,5.34973 6.3099,1e-5 11.38528,-1.94784 15.22618,-5.84356 3.89564,-3.89568 5.84349,-8.97107 5.84355,-15.22617 m 15.14387,-27.1602 0,45.92543 13.4978,0 0,8.72419 -28.64167,0 0,-9.46492 c -3.34707,4.06032 -7.21534,7.05068 -11.60481,8.97109 -4.38958,1.92042 -9.51983,2.88063 -15.39078,2.88063 -9.71186,0 -17.42096,-2.57884 -23.12732,-7.73654 -5.7064,-5.15768 -8.55959,-12.12605 -8.55958,-20.90512 -10e-6,-9.05337 3.2647,-16.0766 9.79413,-21.06973 6.5294,-4.99304 15.7474,-7.48958 27.65403,-7.48963 l 21.23433,0 0,-6.00817 c -6e-5,-6.63909 -2.03022,-11.76935 -6.09046,-15.39078 -4.00551,-3.67615 -9.65702,-5.51426 -16.95455,-5.51434 -6.03564,8e-5 -10.83668,1.3718 -14.40314,4.11518 -3.56652,2.74353 -5.23802,2.71665 -5.23802,2.71665 l -8.89028,-0.17857 -0.35714,-8.05243 c 5.26741,-0.99954 10.37023,-3.92305 15.30848,-5.02052 4.99305,-1.15216 9.84896,-1.72828 14.56774,-1.72837 12.12601,9e-5 21.34401,3.01788 27.65402,9.0534 6.36474,5.9808 9.54714,14.70498 9.54722,26.17255"
       sodipodi:nodetypes="ccsssssccccccccsssssscscccccccccc" />
    <path
       inkscape:connector-curvature="0"
       id="path3414"
       style="font-size:168.55784607px;font-style:normal;font-variant:normal;font-weight:normal;font-stretch:normal;line-height:125%;letter-spacing:0px;word-spacing:0px;fill:#000000;fill-opacity:1;stroke:none;font-family:Serif;-inkscape-font-specification:Serif"
       d="m 407.60855,347.39228 14.32084,0 0,8.72419 -44.03245,0 0,-8.72419 14.56775,0 0,-110.61609 -14.56775,0 0,-8.72418 29.71161,0 0,119.34027" />
    <path
       inkscape:connector-curvature="0"
       id="path3416"
       style="font-size:168.55784607px;font-style:normal;font-variant:normal;font-weight:normal;font-stretch:normal;line-height:125%;letter-spacing:0px;word-spacing:0px;fill:#000000;fill-opacity:1;stroke:none;font-family:Serif;-inkscape-font-specification:Serif"
       d="m 461.59973,347.39228 14.32084,0 0,8.72419 -44.03245,0 0,-8.72419 14.56775,0 0,-110.61609 -14.56775,0 0,-8.72418 29.71161,0 0,119.34027" />
    <path
       inkscape:connector-curvature="0"
       id="path3418"
       style="font-size:168.55784607px;font-style:normal;font-variant:normal;font-weight:normal;font-stretch:normal;line-height:125%;letter-spacing:0px;word-spacing:0px;fill:#000000;fill-opacity:1;stroke:none;font-family:Serif;-inkscape-font-specification:Serif"
       d="m 549.59865,268.46309 0,21.89277 -8.72419,0 c -0.27441,-4.33459 -1.48153,-7.57186 -3.62136,-9.71183 -2.13996,-2.13981 -5.26749,-3.20976 -9.38261,-3.20984 -7.46225,8e-5 -13.19606,2.57892 -17.20146,7.73654 -3.95061,5.15776 -5.9259,12.56508 -5.92586,22.22198 l 0,39.99957 17.53067,0 0,8.72419 -46.33695,0 0,-8.72419 13.66241,0 0,-70.1227 -14.48544,0 0,-8.64188 29.62931,0 0,15.55539 c 2.96289,-6.09039 6.77629,-10.58965 11.4402,-13.4978 4.66382,-2.96284 10.34277,-4.4443 17.03685,-4.44439 2.46905,9e-5 5.04789,0.19213 7.73655,0.57612 2.74338,0.38417 5.624,0.93286 8.64188,1.64607" />
    <g
       transform="matrix(0,0.24545603,0.24545603,0,277.049,243.00966)"
       id="g3554">
      <path
         inkscape:connector-curvature="0"
         d="m 290.61109,594.7957 -70.62176,0 -21.67599,-11.65375 0,-32.8636 138.91278,-12.81913 0,42.88583 -46.61503,9.08992 0,5.36073 z"
         style="color:#000000;fill:#000000;fill-opacity:1;fill-rule:nonzero;stroke:none;stroke-width:1;marker:none;visibility:visible;display:inline;overflow:visible"
         id="path5534" />
      <path
         inkscape:connector-curvature="0"
         d="m 65.22745,640.14176 318.38061,0.56974 -0.0533,-59.20108 -91.31212,20.04446 -132.85282,0 -94.16235,25.17211 c -5.54704,2.24346 -7.3857,13.41477 0,13.41477 z"
         style="color:#000000;fill:#000000;fill-opacity:1;fill-rule:nonzero;stroke:none;stroke-width:1;marker:none;visibility:visible;display:inline;overflow:visible"
         id="path5536" />
      <path
         inkscape:connector-curvature="0"
         d="m 155.81493,666.86299 c -3e-5,11.30705 -9.15117,20.48115 -20.45818,20.50952 -11.30701,0.0284 -20.50407,-9.09969 -20.56084,-20.4066 -0.0568,-11.3069 9.04816,-20.52686 20.35489,-20.61203 11.30672,-0.0852 20.54952,8.99658 20.66309,20.30305"
         style="fill:#000000;fill-opacity:1;fill-rule:evenodd;stroke:none"
         id="path1874" />
      <path
         inkscape:connector-curvature="0"
         d="m 201.97733,666.86299 c -3e-5,11.30705 -9.15117,20.48115 -20.45818,20.50952 -11.30701,0.0284 -20.50407,-9.09969 -20.56084,-20.4066 -0.0568,-11.3069 9.04816,-20.52686 20.35489,-20.61203 11.30672,-0.0852 20.54952,8.99658 20.66309,20.30305"
         style="fill:#000000;fill-opacity:1;fill-rule:evenodd;stroke:none"
         id="path1876" />
      <path
         inkscape:connector-curvature="0"
         d="m 247.33033,666.86299 c -3e-5,11.30705 -9.15117,20.48115 -20.45818,20.50952 -11.30701,0.0284 -20.50407,-9.09969 -20.56084,-20.4066 -0.0568,-11.3069 9.04816,-20.52686 20.35489,-20.61203 11.30672,-0.0852 20.54952,8.99658 20.66309,20.30305"
         style="fill:#000000;fill-opacity:1;fill-rule:evenodd;stroke:none"
         id="path1880" />
      <path
         inkscape:connector-curvature="0"
         d="m 293.76333,666.86299 c -3e-5,11.30705 -9.15117,20.48115 -20.45818,20.50952 -11.30701,0.0284 -20.50407,-9.09969 -20.56084,-20.4066 -0.0568,-11.3069 9.04816,-20.52686 20.35489,-20.61203 11.30672,-0.0852 20.54952,8.99658 20.66309,20.30305"
         style="fill:#000000;fill-opacity:1;fill-rule:evenodd;stroke:none"
         id="path3511" />
      <path
         inkscape:connector-curvature="0"
         d="m 83.75265,646.62921 -9.5625,0.4375 c -5.32566,13.2481 -0.88992,25.37037 13.75,34.34375 16.49748,10.11194 36.32098,19.84936 42.0625,20 l 195.0625,0.0625 c 5.74152,-0.15064 25.56503,-9.88804 42.0625,-20 14.63992,-8.97338 19.07566,-21.1269 13.75,-34.375 l -9.5625,-0.40625 c 2.87764,12.39545 5.36125,20.76159 -12.5625,29.25 -14.66994,6.94744 -30.17637,15.21816 -32.59375,15.71875 l -197.25,-0.0312 c -2.41737,-0.50061 -17.89256,-8.80256 -32.5625,-15.75 -17.92375,-8.4884 -15.47139,-16.85455 -12.59375,-29.25 z m -23.30406,-90.04305 0,13.58752 133.19884,4.52917 0,-18.32256 -133.19884,0.20587 z"
         style="color:#000000;fill:#000000;fill-opacity:1;fill-rule:nonzero;stroke:none;stroke-width:1;marker:none;visibility:visible;display:inline;overflow:visible"
         id="path1890" />
      <path
         inkscape:connector-curvature="0"
         d="m 339.83623,667.93559 c -3e-5,11.30705 -9.15117,20.48115 -20.45818,20.50952 -11.30701,0.0284 -20.50407,-9.09969 -20.56084,-20.4066 -0.0568,-11.3069 9.04816,-20.52686 20.35489,-20.61203 11.30672,-0.0852 20.54952,8.99658 20.66309,20.30305"
         style="fill:#000000;fill-opacity:1;fill-rule:evenodd;stroke:none"
         id="path1884" />
      <path
         inkscape:connector-curvature="0"
         d="m 368.27196,658.40424 c -2e-5,6.44528 -5.21638,11.67474 -11.66165,11.69091 -6.44527,0.0162 -11.68781,-5.18704 -11.72017,-11.63225 -0.0324,-6.4452 5.15767,-11.7008 11.60277,-11.74935 6.44511,-0.0486 11.71372,5.12827 11.77846,11.57323"
         style="fill:#000000;fill-opacity:1;fill-rule:evenodd;stroke:none"
         id="path1886" />
      <path
         inkscape:connector-curvature="0"
         d="m 110.01126,658.40424 c -2e-5,6.44528 -5.21638,11.67474 -11.66165,11.69091 -6.44527,0.0162 -11.68781,-5.18704 -11.72017,-11.63225 -0.03236,-6.4452 5.15767,-11.7008 11.60277,-11.74935 6.44511,-0.0486 11.71372,5.12827 11.77846,11.57323"
         style="fill:#000000;fill-opacity:1;fill-rule:evenodd;stroke:none"
         id="path1888" />
    </g>
    <path
       d="m 251.17449,475.52545 22.38659,65.15708 19.75287,-56.75731 -12.67476,0 0,-8.39977 31.6869,0 0,8.39977 -9.71183,0 -26.00795,75.04839 -12.59246,0 -21.56355,-62.40949 -21.64586,62.40949 -12.09863,0 -25.92564,-75.04839 -9.79414,0 0,-8.39977 39.58805,0 0,8.39977 -14.15622,0 19.58826,56.75731 22.5512,-65.15708 10.61717,0"
       style="font-size:168.55784607px;font-style:normal;font-variant:normal;font-weight:normal;font-stretch:normal;line-height:125%;letter-spacing:0px;word-spacing:0px;fill:#000000;fill-opacity:1;stroke:none;font-family:Serif;-inkscape-font-specification:Serif"
       id="path3444"
       inkscape:connector-curvature="0" />
    <path
       sodipodi:nodetypes="ccsssssccccccccsssssscscccccccccc"
       d="m 363.36069,531.48419 0,-18.51832 -19.50596,0 c -7.5171,5e-5 -13.11374,1.61869 -16.78994,4.85592 -3.67626,3.23731 -5.51437,8.20296 -5.51434,14.89696 -3e-5,6.09049 1.86552,10.91896 5.59664,14.48544 3.73107,3.5665 8.77902,5.34974 15.14387,5.34973 6.3099,1e-5 11.38528,-1.94784 15.22618,-5.84356 3.89564,-3.89568 5.84349,-8.97107 5.84355,-15.22617 m 15.14387,-27.1602 0,45.92543 13.4978,0 0,8.72419 -28.64167,0 0,-9.46492 c -3.34707,4.06032 -7.21534,7.05068 -11.60481,8.97109 -4.38958,1.92042 -9.51983,2.88063 -15.39078,2.88063 -9.71186,0 -17.42096,-2.57884 -23.12732,-7.73654 -5.7064,-5.15768 -8.55959,-12.12605 -8.55958,-20.90512 -1e-5,-9.05337 3.2647,-16.0766 9.79413,-21.06973 6.5294,-4.99304 15.7474,-7.48958 27.65403,-7.48963 l 21.23433,0 0,-6.00817 c -6e-5,-6.63909 -2.03022,-11.76935 -6.09046,-15.39078 -4.00551,-3.67615 -9.65702,-5.51426 -16.95455,-5.51434 -6.03564,8e-5 -10.83668,1.3718 -14.40314,4.11518 -3.56652,2.74353 -5.23802,2.71665 -5.23802,2.71665 l -8.89028,-0.17857 -0.35714,-8.05243 c 5.26741,-0.99954 10.37023,-3.92305 15.30848,-5.02052 4.99305,-1.15216 9.84896,-1.72828 14.56774,-1.72837 12.12601,9e-5 21.34401,3.01788 27.65402,9.0534 6.36474,5.9808 9.54714,14.70498 9.54722,26.17255"
       style="font-size:168.55784607px;font-style:normal;font-variant:normal;font-weight:normal;font-stretch:normal;line-height:125%;letter-spacing:0px;word-spacing:0px;fill:#000000;fill-opacity:1;stroke:none;font-family:Serif;-inkscape-font-specification:Serif"
       id="path3446"
       inkscape:connector-curvature="0" />
    <path
       d="m 421.17998,550.24942 14.32084,0 0,8.72419 -44.03245,0 0,-8.72419 14.56775,0 0,-110.61609 -14.56775,0 0,-8.72418 29.71161,0 0,119.34027"
       style="font-size:168.55784607px;font-style:normal;font-variant:normal;font-weight:normal;font-stretch:normal;line-height:125%;letter-spacing:0px;word-spacing:0px;fill:#000000;fill-opacity:1;stroke:none;font-family:Serif;-inkscape-font-specification:Serif"
       id="path3448"
       inkscape:connector-curvature="0" />
    <path
       d="m 475.17116,550.24942 14.32084,0 0,8.72419 -44.03245,0 0,-8.72419 14.56775,0 0,-110.61609 -14.56775,0 0,-8.72418 29.71161,0 0,119.34027"
       style="font-size:168.55784607px;font-style:normal;font-variant:normal;font-weight:normal;font-stretch:normal;line-height:125%;letter-spacing:0px;word-spacing:0px;fill:#000000;fill-opacity:1;stroke:none;font-family:Serif;-inkscape-font-specification:Serif"
       id="path3450"
       inkscape:connector-curvature="0" />
    <path
       d="m 563.17008,471.32023 0,21.89277 -8.72419,0 c -0.27441,-4.33459 -1.48153,-7.57186 -3.62136,-9.71183 -2.13996,-2.13981 -5.26749,-3.20976 -9.38261,-3.20984 -7.46225,8e-5 -13.19606,2.57892 -17.20146,7.73654 -3.95061,5.15776 -5.9259,12.56508 -5.92586,22.22198 l 0,39.99957 17.53067,0 0,8.72419 -46.33695,0 0,-8.72419 13.66241,0 0,-70.1227 -14.48544,0 0,-8.64188 29.62931,0 0,15.55539 c 2.96289,-6.09039 6.77629,-10.58965 11.4402,-13.4978 4.66382,-2.96284 10.34277,-4.4443 17.03685,-4.44439 2.46905,9e-5 5.04789,0.19213 7.73655,0.57612 2.74338,0.38417 5.624,0.93286 8.64188,1.64607"
       style="font-size:168.55784607px;font-style:normal;font-variant:normal;font-weight:normal;font-stretch:normal;line-height:125%;letter-spacing:0px;word-spacing:0px;fill:#000000;fill-opacity:1;stroke:none;font-family:Serif;-inkscape-font-specification:Serif"
       id="path3452"
       inkscape:connector-curvature="0" />
    <path
       inkscape:connector-curvature="0"
       d="m 438.88946,517.45158 0,-17.33453 -2.86048,-5.3205 -8.06657,0 -3.14653,34.09697 10.52658,0 2.23118,-11.44194 1.31582,0 z"
       style="color:#000000;fill:#000000;fill-opacity:1;fill-rule:nonzero;stroke:none;stroke-width:1;marker:none;visibility:visible;display:inline;overflow:visible"
       id="path3456" />
    <path
       inkscape:connector-curvature="0"
       d="m 447.74709,461.87727 0.13984,78.14844 -14.53126,-0.0131 4.03615,-22.53938 0.88388,-32.48326 6.17865,-23.11271 c 0.55067,-1.36156 3.29274,-1.81287 3.29274,1e-5 z"
       style="color:#000000;fill:#000000;fill-opacity:1;fill-rule:nonzero;stroke:none;stroke-width:1;marker:none;visibility:visible;display:inline;overflow:visible"
       id="path3458"
       sodipodi:nodetypes="ccccccc" />
    <path
       inkscape:connector-curvature="0"
       d="m 446.054,463.89865 c 3.25182,-1.30722 9.62017,-0.0399 11.82274,3.55359 2.48203,4.04941 4.87214,8.9152 4.90912,10.32449 l 0.0153,47.87927 c -0.037,1.40929 -2.42708,6.27509 -4.90912,10.3245 -2.20257,3.59345 -7.06073,4.05723 -10.31255,2.75002 -6.75042,-28.54497 0.82713,-54.04163 -1.52549,-74.83187 z m -18.81614,-3.19438 4.21902,0 2.24814,34.5885 -4.49738,0.63134 -0.58085,-35.21984 z"
       style="color:#000000;fill:#000000;fill-opacity:1;fill-rule:nonzero;stroke:none;stroke-width:1;marker:none;visibility:visible;display:inline;overflow:visible"
       id="path3468"
       sodipodi:nodetypes="csccscccccccc" />
    <path
       inkscape:connector-curvature="0"
       d="m 452.22972,472.86973 c 1.58203,-1e-5 2.86564,-1.28039 2.86961,-2.86243 0.004,-1.58203 -1.2732,-2.86884 -2.85521,-2.87678 -1.58201,-0.008 -2.87203,1.26598 -2.88395,2.84797 -0.0119,1.58199 1.25877,2.8752 2.84072,2.89109"
       style="fill:#000000;fill-opacity:1;fill-rule:evenodd;stroke:none"
       id="path3474" />
  </g>
</svg>
